<?xml version="1.0" standalone="no"?>
<!DOCTYPE svg PUBLIC "-//W3C//DTD SVG 20010904//EN"
 "http://www.w3.org/TR/2001/REC-SVG-20010904/DTD/svg10.dtd">
<svg version="1.0" xmlns="http://www.w3.org/2000/svg"
 width="288.000000pt" height="288.000000pt" viewBox="0 0 288.000000 288.000000"
 preserveAspectRatio="xMidYMid meet">
<metadata>
Created by potrace 1.11, written by Peter Selinger 2001-2013
</metadata>
<g transform="translate(0.000000,288.000000) scale(0.100000,-0.100000)"
fill="#000000" stroke="none">
<path d="M1705 2870 c3 -5 1 -10 -6 -10 -7 0 -9 -3 -6 -6 3 -4 2 -14 -3 -23
-5 -10 -5 -23 1 -32 5 -7 9 -11 9 -7 0 4 11 -3 25 -15 50 -44 62 -54 78 -60 9
-3 17 -12 17 -19 0 -15 35 -48 50 -48 5 0 6 -7 3 -17 -4 -9 -2 -14 3 -10 5 3
31 -27 57 -66 26 -40 50 -77 55 -82 4 -6 8 -17 10 -25 2 -8 8 -17 13 -18 5 -2
7 -8 3 -13 -3 -5 0 -9 6 -9 6 0 8 -4 5 -10 -3 -5 -1 -10 5 -10 6 0 8 -4 5 -10
-3 -5 -3 -10 2 -10 4 0 13 -11 20 -25 6 -15 7 -22 1 -19 -6 4 -2 -5 7 -20 10
-14 13 -26 9 -26 -5 0 -3 -4 3 -8 7 -5 14 -20 15 -34 1 -15 6 -24 10 -22 4 3
8 1 8 -3 0 -5 9 -9 20 -10 13 -1 18 2 14 9 -4 6 -3 8 3 5 5 -3 21 -8 35 -11
23 -4 26 -1 23 17 -3 11 -8 23 -12 26 -8 6 -14 25 -17 51 -1 8 -10 26 -19 41
-9 14 -20 40 -23 57 -4 18 -9 30 -12 27 -6 -6 -32 43 -32 62 0 8 -4 11 -10 8
-5 -3 -10 3 -10 14 0 12 -5 21 -11 21 -5 0 -7 5 -4 10 3 6 -1 13 -9 16 -9 3
-13 10 -10 15 3 5 -2 12 -10 15 -9 3 -13 10 -10 15 3 5 -2 12 -11 15 -10 4
-14 13 -10 22 3 9 3 13 -1 9 -7 -7 -64 50 -64 65 0 4 -8 8 -17 8 -15 0 -16 2
-3 10 8 5 10 10 4 10 -7 0 -29 17 -51 38 -59 55 -81 71 -87 65 -3 -4 -6 1 -6
11 0 9 -4 15 -9 11 -5 -3 -12 -1 -16 5 -3 5 -15 10 -26 10 -11 0 -17 -4 -14
-10z"/>
<path d="M1147 2737 c4 -7 0 -8 -11 -4 -9 4 -27 0 -40 -8 -12 -8 -26 -13 -29
-10 -4 3 -5 2 -3 -1 7 -10 -27 -43 -37 -37 -6 4 -8 -1 -4 -10 3 -10 2 -17 -3
-17 -6 0 -10 -9 -10 -20 0 -11 -4 -20 -10 -20 -5 0 -10 -5 -10 -11 0 -5 4 -8
9 -4 9 5 9 -7 0 -40 -1 -5 1 -19 5 -30 4 -11 13 -33 19 -50 15 -39 57 -101 67
-98 4 1 7 -5 6 -15 0 -9 5 -16 11 -15 7 2 15 -8 19 -22 3 -14 10 -25 15 -25 5
0 9 -7 9 -16 0 -8 5 -12 10 -9 6 3 10 -1 10 -9 0 -9 5 -16 10 -16 6 0 10 -5
10 -11 0 -6 6 -16 13 -24 30 -32 45 -54 40 -59 -4 -3 1 -6 11 -6 9 0 14 -4 11
-10 -3 -5 -1 -10 6 -10 7 0 9 -3 6 -7 -4 -3 2 -13 13 -20 11 -8 18 -18 15 -23
-3 -4 2 -10 10 -14 8 -3 15 -10 15 -16 0 -6 10 -22 23 -35 47 -50 67 -77 68
-93 0 -12 2 -13 6 -4 5 13 17 -2 39 -48 4 -8 16 -22 26 -31 10 -9 18 -20 18
-25 0 -5 9 -15 20 -22 11 -7 20 -17 20 -23 0 -7 8 -19 18 -28 20 -19 27 -47
12 -56 -5 -3 -10 -1 -10 5 0 7 -7 9 -17 6 -10 -4 -14 -4 -11 -1 4 4 -13 27
-37 52 -85 88 -95 100 -95 112 0 7 -4 9 -10 6 -5 -3 -10 1 -10 9 0 9 -7 16
-16 16 -8 0 -12 5 -9 10 3 6 1 10 -4 10 -6 0 -11 7 -11 16 0 8 -4 12 -10 9 -5
-3 -10 -1 -10 5 0 6 -17 27 -37 47 -21 20 -32 33 -24 28 10 -5 12 -4 7 3 -4 7
-14 12 -22 12 -8 0 -13 4 -10 9 3 5 -8 19 -24 32 -16 13 -30 28 -30 32 0 5
-14 22 -31 38 -17 16 -29 29 -25 29 3 0 -7 13 -22 30 -53 58 -77 87 -89 106
-6 10 -16 18 -23 16 -6 -1 -9 1 -6 6 3 5 -6 20 -20 35 -13 14 -24 31 -24 37 0
6 -4 8 -10 5 -5 -3 -10 1 -10 10 0 9 -4 14 -9 11 -5 -3 -12 6 -15 19 -4 14
-11 23 -16 20 -6 -3 -10 1 -10 9 0 9 -6 16 -13 16 -7 0 -18 9 -25 20 -7 12
-17 18 -23 15 -5 -4 -8 -1 -7 6 2 7 -10 19 -27 28 -16 9 -32 19 -35 22 -3 3
-13 5 -22 3 -10 -1 -18 1 -18 6 0 6 -36 7 -50 0 -3 -1 -15 -1 -28 0 -12 1 -25
-5 -28 -14 -3 -8 -11 -13 -18 -10 -17 6 -40 -22 -30 -37 4 -7 3 -9 -2 -6 -22
13 -36 -12 -39 -69 -1 -42 2 -64 14 -78 13 -16 13 -18 1 -11 -13 8 -13 6 -2
-8 8 -9 11 -21 7 -27 -3 -5 -1 -10 4 -10 6 0 11 -5 11 -11 0 -6 6 -16 13 -23
6 -8 19 -24 27 -36 26 -38 47 -60 52 -54 3 3 8 -7 12 -21 4 -14 14 -25 23 -25
9 0 14 -3 11 -6 -4 -3 11 -23 32 -44 21 -21 36 -41 32 -44 -3 -3 2 -6 12 -6 9
0 15 -4 12 -8 -3 -5 6 -16 19 -26 14 -10 22 -24 18 -30 -3 -6 -3 -8 2 -4 7 7
35 -14 35 -26 0 -4 16 -21 35 -40 19 -18 31 -36 28 -40 -4 -3 2 -6 11 -6 12 0
16 -5 12 -15 -5 -14 5 -20 27 -16 5 1 6 -3 2 -9 -3 -5 -1 -10 5 -10 6 0 9 -4
5 -9 -3 -5 4 -13 16 -16 11 -4 18 -9 15 -12 -2 -3 8 -18 24 -33 16 -15 26 -31
23 -34 -4 -3 -1 -6 5 -6 6 0 18 -12 26 -27 8 -16 18 -28 23 -28 4 0 7 -3 6 -7
-2 -5 5 -8 14 -8 9 0 14 -3 10 -6 -8 -8 16 -33 26 -27 4 2 7 -3 7 -13 0 -17
35 -54 52 -54 4 0 8 -7 8 -15 0 -8 4 -15 8 -15 5 0 14 -11 20 -25 6 -14 19
-25 28 -25 10 0 15 -3 11 -6 -3 -3 8 -20 24 -36 31 -33 38 -68 14 -68 -8 0
-15 5 -15 11 0 6 -6 9 -14 6 -8 -3 -16 2 -19 15 -3 11 -10 17 -16 13 -10 -6
-16 8 -11 30 1 5 -1 7 -5 3 -8 -8 -65 47 -65 63 0 7 -3 10 -6 6 -7 -6 -34 17
-34 29 0 9 -41 44 -52 44 -5 0 -7 4 -4 8 3 5 -15 27 -40 50 -24 23 -44 46 -44
51 0 5 -8 15 -17 22 -14 12 -16 12 -8 0 5 -10 4 -12 -3 -7 -7 4 -12 11 -12 17
0 5 -16 26 -35 46 -19 20 -35 41 -35 46 0 4 -4 6 -9 2 -5 -3 -18 8 -27 25 -10
16 -26 33 -36 36 -10 3 -18 11 -18 18 0 7 -16 25 -35 40 -19 16 -32 32 -29 37
3 5 -2 9 -10 9 -8 0 -24 14 -36 30 -12 17 -28 30 -36 30 -8 0 -12 5 -9 10 3 6
-1 10 -9 10 -9 0 -16 5 -16 11 0 5 -4 7 -10 4 -5 -3 -10 -1 -10 5 0 6 -5 8
-10 5 -5 -3 -10 0 -10 7 0 9 -3 9 -10 -2 -6 -10 -10 -11 -10 -2 0 6 -9 12 -21
12 -13 0 -18 4 -13 12 5 7 3 8 -7 2 -8 -4 -24 -9 -36 -10 -36 -2 -80 -24 -92
-47 -7 -14 -10 -15 -6 -4 3 10 1 15 -5 12 -6 -3 -10 -13 -10 -21 0 -8 -5 -14
-11 -14 -5 0 -7 -4 -4 -10 3 -5 2 -10 -4 -10 -6 0 -8 -6 -5 -14 3 -8 1 -17 -5
-21 -7 -4 -8 -13 -3 -23 5 -9 8 -24 7 -32 -1 -8 5 -26 13 -39 8 -13 9 -20 3
-17 -7 5 -9 1 -5 -8 3 -9 10 -16 16 -16 5 0 7 -4 4 -9 -3 -5 1 -11 9 -15 8 -3
15 -11 15 -18 0 -8 9 -20 20 -28 11 -8 20 -20 20 -28 0 -7 4 -11 8 -8 5 3 14
-4 22 -14 8 -10 17 -17 22 -14 4 3 5 -3 1 -12 -4 -12 -3 -15 5 -10 7 4 12 1
12 -9 0 -9 5 -13 10 -10 6 3 13 -1 17 -11 9 -24 181 -193 188 -185 4 3 6 1 4
-4 -4 -17 13 -45 27 -45 8 0 14 -4 14 -10 0 -5 15 -25 34 -44 19 -19 32 -37
28 -42 -4 -4 -2 -4 4 -1 6 3 23 -9 39 -28 15 -19 33 -35 41 -35 8 0 11 -6 7
-17 -3 -10 -3 -15 2 -11 9 8 35 -15 35 -32 0 -6 3 -9 8 -7 4 2 17 -6 30 -19
12 -13 19 -24 15 -25 -4 0 2 -4 15 -10 13 -5 21 -13 18 -18 -3 -5 4 -11 15
-14 12 -3 18 -10 14 -16 -3 -6 1 -11 9 -11 9 0 16 -8 16 -17 0 -9 3 -14 6 -10
8 8 33 -16 27 -25 -2 -5 1 -8 7 -8 6 0 18 -7 26 -15 9 -9 11 -15 4 -15 -6 0
-8 -5 -5 -10 3 -6 1 -10 -4 -10 -6 0 -11 4 -11 10 0 5 -7 7 -15 4 -10 -4 -15
0 -15 12 0 9 -3 15 -6 11 -3 -3 -20 8 -36 24 -17 16 -35 29 -39 29 -5 0 -5 7
-2 17 4 11 3 14 -5 9 -7 -4 -12 -2 -12 5 0 7 -3 10 -6 6 -4 -3 -21 10 -39 29
-18 18 -37 34 -44 34 -6 0 -11 7 -11 16 0 10 -6 14 -15 10 -8 -3 -14 -2 -14 2
4 22 -3 31 -18 25 -9 -4 -14 -2 -11 3 2 5 -8 22 -24 37 -15 15 -28 25 -28 22
0 -4 -12 7 -26 24 -14 17 -30 29 -34 26 -5 -3 -11 3 -14 13 -4 10 -18 25 -31
32 -14 7 -25 17 -25 22 0 5 -4 7 -9 3 -5 -3 -15 0 -23 7 -7 7 -24 15 -38 17
-14 1 -27 6 -30 10 -8 10 -69 7 -67 -4 1 -5 -4 -9 -11 -7 -20 4 -53 -18 -46
-30 4 -6 3 -8 -3 -5 -15 9 -50 -45 -49 -75 1 -16 -2 -28 -7 -28 -5 0 -4 -6 2
-13 6 -8 8 -17 4 -20 -3 -4 -1 -7 6 -7 7 0 10 -4 6 -9 -3 -5 -1 -12 5 -16 6
-4 8 -11 5 -16 -4 -5 -1 -9 4 -9 6 0 11 -7 11 -15 0 -8 3 -15 8 -15 4 0 16
-13 27 -29 10 -16 23 -27 27 -25 4 3 8 0 8 -6 0 -6 13 -25 30 -42 16 -16 30
-27 30 -23 0 3 6 0 14 -7 8 -7 12 -16 9 -20 -2 -5 1 -8 8 -8 13 0 49 -38 49
-51 0 -5 7 -6 15 -3 8 4 15 2 15 -4 0 -5 16 -26 35 -45 19 -19 35 -32 35 -29
0 3 18 -13 40 -36 22 -22 40 -39 40 -36 0 3 6 -1 14 -8 8 -7 12 -16 9 -20 -4
-7 9 -11 27 -10 3 0 15 -13 25 -29 11 -16 33 -35 48 -43 16 -7 28 -16 28 -20
-2 -20 0 -27 8 -22 5 3 16 -5 25 -19 9 -14 23 -25 30 -25 8 0 26 -14 39 -30
14 -17 28 -30 31 -30 3 0 24 -18 46 -41 21 -22 44 -38 50 -34 5 3 10 0 10 -7
0 -7 12 -22 28 -33 15 -11 39 -32 55 -47 15 -14 27 -24 27 -21 0 3 13 -9 29
-26 16 -17 32 -31 35 -31 4 0 20 -13 35 -29 16 -16 32 -27 35 -24 3 4 6 1 6
-5 0 -7 7 -12 16 -12 8 0 12 -4 9 -10 -3 -5 3 -10 14 -10 11 0 24 -6 28 -14 4
-8 15 -16 23 -18 8 -2 23 -11 34 -20 11 -10 28 -18 37 -18 10 0 21 -4 24 -10
3 -5 17 -10 31 -10 18 0 23 -4 18 -12 -5 -9 -2 -9 9 1 13 10 17 10 17 1 0 -9
4 -9 17 1 11 10 14 10 9 2 -7 -13 -3 -15 47 -15 15 -1 27 -6 27 -12 0 -6 4 -5
9 3 6 9 10 10 16 2 5 -9 10 -9 21 0 11 9 14 9 14 0 0 -7 4 -9 10 -6 21 13 54
14 69 2 12 -9 13 -9 7 1 -5 8 0 13 13 14 12 0 27 1 34 2 6 1 15 5 18 9 4 5 18
10 33 10 14 1 26 5 26 10 0 4 9 7 20 7 11 0 20 5 20 11 0 5 4 8 9 4 5 -3 15 0
23 7 7 7 20 14 28 16 8 2 18 9 22 15 4 7 8 8 8 3 0 -6 7 -1 15 10 8 10 15 15
15 9 0 -5 4 -5 8 2 4 6 13 13 21 15 8 2 29 18 48 36 18 18 38 30 43 27 6 -3
10 1 10 9 0 9 4 16 10 16 5 0 34 24 64 54 30 30 58 51 62 47 4 -3 4 -1 1 6 -4
6 4 20 18 31 14 11 25 24 25 30 0 5 7 12 15 16 8 3 15 13 15 21 0 10 5 13 12
9 6 -4 8 -3 5 3 -7 11 27 66 36 57 3 -3 4 2 3 13 -2 10 0 20 3 23 12 9 51 81
41 75 -5 -3 -10 -2 -10 4 0 5 5 11 12 13 7 3 13 15 15 29 6 57 12 81 25 96 9
12 9 15 1 9 -7 -4 -13 -2 -13 3 0 6 4 11 8 11 9 0 8 138 -1 146 -3 3 -1 19 3
34 5 16 5 29 2 29 -19 -3 -23 3 -11 17 9 11 9 18 2 22 -6 4 -10 19 -8 33 2 14
-1 45 -5 67 -4 26 -4 42 3 42 6 0 6 4 0 13 -6 6 -9 20 -8 30 2 9 0 17 -4 17
-4 0 -7 18 -6 40 1 22 -4 40 -9 40 -6 0 -4 5 4 10 12 8 12 10 1 10 -8 0 -11 7
-8 20 3 11 0 20 -6 20 -6 0 -7 3 -4 6 3 4 2 16 -4 27 -8 14 -8 18 0 13 8 -5 8
1 0 21 -6 15 -12 51 -13 78 -1 28 -6 57 -10 64 -6 10 -5 12 2 7 13 -8 13 -5
16 61 0 22 4 39 9 36 6 -4 12 28 8 50 0 4 3 7 8 7 6 0 8 9 6 20 -2 11 0 22 6
25 5 4 9 15 9 26 0 10 5 19 10 19 6 0 10 7 10 15 0 8 4 23 9 33 5 9 16 32 23
50 7 17 17 32 21 32 5 0 6 4 2 9 -3 5 -1 12 5 16 6 4 8 11 5 16 -4 5 -1 9 4 9
6 0 11 7 11 15 0 8 5 15 11 15 6 0 9 8 6 19 -2 10 -1 25 4 33 11 19 -57 98
-84 98 -9 0 -17 4 -17 9 0 5 -8 8 -17 6 -10 -1 -27 5 -37 14 -11 9 -16 10 -12
4 5 -9 0 -13 -14 -13 -13 0 -19 4 -14 12 5 7 3 8 -7 2 -16 -10 -20 -11 -50
-13 -13 -1 -18 -5 -13 -13 5 -10 4 -10 -6 -1 -13 12 -46 1 -61 -21 -4 -5 -11
-6 -17 -2 -5 3 -13 -1 -16 -10 -3 -8 -10 -13 -15 -9 -5 3 -12 -4 -16 -15 -3
-11 -10 -19 -14 -17 -13 3 -67 -60 -63 -73 3 -8 0 -10 -7 -6 -10 6 -15 -6 -12
-26 0 -5 -4 -8 -9 -8 -6 0 -10 -9 -10 -21 0 -13 -4 -18 -12 -13 -8 5 -7 0 2
-11 9 -11 10 -16 3 -11 -9 5 -13 0 -14 -16 -2 -26 -10 -162 -12 -195 -1 -12
-6 -21 -12 -20 -5 1 -10 -5 -11 -13 -3 -34 -17 -60 -35 -65 -11 -4 -17 -11
-14 -16 5 -8 -2 -11 -21 -8 -3 0 -16 -6 -28 -15 -20 -13 -27 -13 -42 -2 -10 8
-25 11 -33 8 -10 -4 -12 -1 -6 8 5 8 4 11 -3 7 -14 -9 -43 3 -36 14 3 5 -5 9
-17 9 -12 0 -19 3 -16 7 4 3 -2 13 -13 20 -11 8 -18 19 -14 24 3 5 2 8 -3 7
-9 -3 -35 23 -88 87 -16 21 -38 46 -47 56 -10 10 -18 24 -18 30 0 5 -4 7 -10
4 -5 -3 -10 0 -10 7 0 8 -12 27 -27 44 -39 43 -58 74 -55 86 1 5 -2 7 -8 3 -5
-3 -10 1 -10 10 0 9 -5 13 -10 10 -5 -3 -10 1 -10 9 0 9 -4 16 -10 16 -5 0
-10 6 -10 14 0 8 -7 17 -16 20 -9 4 -14 9 -11 12 3 4 -5 18 -18 32 -13 14 -22
29 -19 34 3 4 -3 8 -12 8 -10 0 -15 3 -11 6 6 7 -4 22 -43 62 -14 14 -18 22
-10 17 8 -4 6 1 -5 13 -32 34 -46 52 -40 52 3 0 -6 11 -20 25 -14 14 -25 33
-25 41 0 8 -4 12 -10 9 -5 -3 -10 1 -10 10 0 10 -5 13 -12 9 -7 -4 -8 -3 -4 4
4 7 -6 25 -24 42 -16 16 -30 32 -30 36 0 3 -13 18 -30 34 -16 15 -26 31 -22
35 4 5 -1 5 -10 2 -12 -4 -18 -1 -18 8 0 8 -7 15 -15 15 -8 0 -15 5 -15 10 0
6 -5 10 -12 10 -6 0 -20 8 -31 18 -15 12 -18 13 -12 2 7 -12 6 -13 -6 -4 -20
16 -61 25 -52 11z"/>
<path d="M1575 2694 c-11 -8 -19 -17 -17 -19 1 -3 2 -6 1 -7 -5 -16 -6 -39 -2
-35 13 13 193 -167 193 -193 0 -6 4 -10 8 -10 9 0 29 -37 30 -54 0 -5 7 -13
16 -18 9 -5 16 -18 16 -28 0 -10 5 -22 10 -25 6 -4 8 -11 5 -16 -4 -5 -2 -9 3
-9 11 0 29 -50 34 -92 1 -9 5 -15 9 -12 4 2 9 -1 11 -8 5 -13 58 -18 58 -6 0
4 7 8 15 8 14 0 14 2 0 23 -8 13 -12 27 -8 30 3 4 1 7 -5 7 -6 0 -9 9 -7 20 2
11 0 18 -6 15 -5 -4 -9 3 -9 14 0 11 -4 23 -10 26 -5 3 -10 15 -10 26 0 10 -4
19 -10 19 -5 0 -10 9 -10 20 0 11 -4 20 -10 20 -5 0 -10 9 -10 21 0 13 -4 18
-12 13 -7 -5 -9 -2 -6 8 4 8 -2 20 -14 27 -11 7 -18 15 -15 18 3 3 -5 17 -19
32 -14 14 -33 38 -42 54 -9 15 -19 27 -23 27 -4 0 -29 20 -55 45 -27 25 -57
48 -67 51 -9 3 -15 10 -12 15 9 14 -8 10 -30 -7z"/>
<path d="M242 1111 c-11 -8 -12 -41 0 -41 4 0 8 -9 8 -20 0 -11 5 -20 10 -20
6 0 10 -7 10 -15 0 -8 5 -15 10 -15 6 0 10 -7 10 -14 0 -8 11 -27 25 -42 14
-15 25 -33 25 -41 0 -8 4 -12 9 -9 5 3 12 -6 15 -19 4 -14 11 -23 16 -20 6 3
10 -1 10 -10 0 -9 5 -13 10 -10 6 3 10 1 10 -5 0 -15 26 -41 34 -33 3 4 6 1 6
-6 0 -6 9 -21 20 -33 11 -12 20 -18 20 -14 0 4 6 1 14 -6 30 -29 57 -48 66
-48 6 0 10 -4 10 -10 0 -5 7 -10 15 -10 8 0 15 -5 15 -10 0 -6 3 -9 8 -9 22 4
42 -2 37 -11 -4 -6 6 -10 23 -10 18 0 32 6 36 16 4 10 2 13 -6 8 -7 -5 -8 -3
-2 7 12 20 14 40 3 33 -5 -3 -9 -2 -9 3 0 4 -19 17 -43 28 -23 11 -50 28 -59
39 -10 10 -18 15 -18 11 0 -4 -8 2 -19 13 -10 12 -24 22 -31 22 -7 0 -10 3 -7
6 7 7 -30 44 -45 44 -4 0 -8 7 -8 15 0 8 -4 15 -10 15 -5 0 -10 7 -10 16 0 8
-4 12 -10 9 -6 -3 -10 1 -10 9 0 8 -6 19 -13 23 -16 11 -69 93 -60 93 5 0 0 5
-9 11 -10 5 -18 17 -18 25 0 26 -24 43 -45 32 -10 -6 -15 -7 -12 -1 7 10 -17
13 -31 4z"/>
<path d="M25 1020 c-4 -6 -11 -7 -17 -4 -5 4 -2 -5 7 -19 9 -15 14 -31 10 -37
-4 -6 -2 -9 3 -8 6 2 10 -1 10 -6 0 -5 8 -14 17 -19 14 -8 15 -11 4 -18 -11
-7 -10 -9 4 -9 10 0 15 -4 12 -10 -3 -5 -1 -10 4 -10 6 0 11 -5 11 -10 0 -6 5
-16 10 -23 41 -48 49 -61 44 -68 -3 -5 1 -9 9 -9 15 0 32 -27 28 -43 -1 -5 3
-6 8 -3 5 4 12 -3 16 -14 4 -11 11 -18 16 -15 5 4 9 -1 9 -9 0 -9 7 -16 16
-16 8 0 13 -3 11 -7 -6 -10 19 -34 27 -26 3 4 6 1 6 -6 0 -16 26 -42 34 -34 3
4 6 -1 6 -10 0 -9 5 -19 12 -23 7 -5 8 -2 3 7 -4 8 4 2 19 -13 15 -16 33 -28
41 -28 7 0 17 -10 20 -21 6 -17 9 -19 16 -8 5 8 9 9 9 3 0 -6 13 -17 30 -24
16 -7 30 -16 30 -21 0 -5 9 -9 20 -9 11 0 20 -4 20 -10 0 -5 7 -10 15 -10 8 0
15 -5 15 -11 0 -5 5 -7 10 -4 6 4 8 11 5 16 -4 5 -1 9 5 9 7 0 10 7 6 15 -3 8
2 21 10 30 14 13 14 15 -1 15 -10 0 -13 5 -9 13 4 6 4 9 0 5 -5 -4 -26 4 -47
18 -21 13 -42 24 -46 24 -8 0 -21 10 -111 88 -70 60 -98 88 -105 106 -4 10
-11 14 -17 11 -5 -3 -10 1 -10 9 0 9 -4 16 -10 16 -5 0 -10 6 -10 13 0 6 -12
23 -25 36 -14 13 -25 29 -25 37 0 8 -4 14 -10 14 -5 0 -10 7 -10 16 0 9 -5 12
-11 8 -7 -4 -10 -1 -7 7 2 7 -4 22 -14 33 -10 11 -18 28 -18 38 0 11 -5 16
-10 13 -5 -3 -10 1 -10 9 0 12 -10 16 -39 16 -22 0 -43 -5 -46 -10z"/>
<path d="M1290 376 c0 -2 8 -10 18 -17 15 -13 16 -12 3 4 -13 16 -21 21 -21
13z"/>
</g>
</svg>
